<mxfile host="Electron" agent="Mozilla/5.0 (Windows NT 10.0; Win64; x64) AppleWebKit/537.36 (KHTML, like Gecko) draw.io/27.0.9 Chrome/134.0.6998.205 Electron/35.4.0 Safari/537.36" version="27.0.9">
  <diagram name="Free MVP" id="30gZW5Z9Sja-qO6cN29x">
    <mxGraphModel dx="872" dy="547" grid="1" gridSize="10" guides="1" tooltips="1" connect="1" arrows="1" fold="1" page="1" pageScale="1" pageWidth="850" pageHeight="1100" math="0" shadow="0">
      <root>
        <mxCell id="0" />
        <mxCell id="1" parent="0" />
        <mxCell id="e2dqvePIEYTKkvD19rhr-17" style="edgeStyle=orthogonalEdgeStyle;rounded=0;orthogonalLoop=1;jettySize=auto;html=1;" parent="1" source="e2dqvePIEYTKkvD19rhr-1" target="e2dqvePIEYTKkvD19rhr-5" edge="1">
          <mxGeometry relative="1" as="geometry" />
        </mxCell>
        <mxCell id="e2dqvePIEYTKkvD19rhr-18" value="Edit button clicked" style="edgeLabel;html=1;align=center;verticalAlign=middle;resizable=0;points=[];" parent="e2dqvePIEYTKkvD19rhr-17" vertex="1" connectable="0">
          <mxGeometry x="0.1385" y="7" relative="1" as="geometry">
            <mxPoint as="offset" />
          </mxGeometry>
        </mxCell>
        <mxCell id="e2dqvePIEYTKkvD19rhr-19" style="edgeStyle=orthogonalEdgeStyle;rounded=0;orthogonalLoop=1;jettySize=auto;html=1;entryX=0.5;entryY=0;entryDx=0;entryDy=0;" parent="1" source="e2dqvePIEYTKkvD19rhr-1" edge="1">
          <mxGeometry relative="1" as="geometry">
            <mxPoint x="395" y="600" as="targetPoint" />
          </mxGeometry>
        </mxCell>
        <mxCell id="e2dqvePIEYTKkvD19rhr-20" value="spin button clicked" style="edgeLabel;html=1;align=center;verticalAlign=middle;resizable=0;points=[];" parent="e2dqvePIEYTKkvD19rhr-19" vertex="1" connectable="0">
          <mxGeometry x="0.2214" y="4" relative="1" as="geometry">
            <mxPoint as="offset" />
          </mxGeometry>
        </mxCell>
        <mxCell id="e2dqvePIEYTKkvD19rhr-1" value="" style="rounded=0;whiteSpace=wrap;html=1;" parent="1" vertex="1">
          <mxGeometry x="80" y="60" width="630" height="450" as="geometry" />
        </mxCell>
        <mxCell id="e2dqvePIEYTKkvD19rhr-2" value="Edit" style="html=1;shadow=0;dashed=0;shape=mxgraph.bootstrap.rrect;rSize=5;strokeColor=none;strokeWidth=1;fillColor=#33A64C;fontColor=#FFFFFF;whiteSpace=wrap;align=center;verticalAlign=middle;spacingLeft=0;fontStyle=0;fontSize=16;spacing=5;" parent="1" vertex="1">
          <mxGeometry x="345" y="430" width="90" height="40" as="geometry" />
        </mxCell>
        <mxCell id="e2dqvePIEYTKkvD19rhr-4" value="(roullete)" style="ellipse;whiteSpace=wrap;html=1;verticalAlign=top;" parent="1" vertex="1">
          <mxGeometry x="300" y="170" width="180" height="180" as="geometry" />
        </mxCell>
        <mxCell id="e2dqvePIEYTKkvD19rhr-5" value="" style="rounded=0;whiteSpace=wrap;html=1;" parent="1" vertex="1">
          <mxGeometry x="870" y="60" width="630" height="450" as="geometry" />
        </mxCell>
        <mxCell id="e2dqvePIEYTKkvD19rhr-6" value="Done" style="html=1;shadow=0;dashed=0;shape=mxgraph.bootstrap.rrect;rSize=5;strokeColor=none;strokeWidth=1;fillColor=#33A64C;fontColor=#FFFFFF;whiteSpace=wrap;align=center;verticalAlign=middle;spacingLeft=0;fontStyle=0;fontSize=16;spacing=5;" parent="1" vertex="1">
          <mxGeometry x="1135" y="430" width="90" height="40" as="geometry" />
        </mxCell>
        <mxCell id="e2dqvePIEYTKkvD19rhr-9" value="item1&lt;br&gt;item2&lt;br&gt;item3&lt;br&gt;&lt;div style=&quot;&quot;&gt;&lt;span style=&quot;background-color: transparent; color: light-dark(rgb(0, 0, 0), rgb(255, 255, 255));&quot;&gt;item4&lt;/span&gt;&lt;/div&gt;" style="rounded=1;whiteSpace=wrap;html=1;align=left;verticalAlign=top;" parent="1" vertex="1">
          <mxGeometry x="1120" y="230" width="120" height="130" as="geometry" />
        </mxCell>
        <mxCell id="e2dqvePIEYTKkvD19rhr-10" value="" style="rounded=0;whiteSpace=wrap;html=1;" parent="1" vertex="1">
          <mxGeometry x="80" y="600" width="630" height="450" as="geometry" />
        </mxCell>
        <mxCell id="e2dqvePIEYTKkvD19rhr-11" value="Edit" style="html=1;shadow=0;dashed=0;shape=mxgraph.bootstrap.rrect;rSize=5;strokeColor=none;strokeWidth=1;fillColor=#33A64C;fontColor=#FFFFFF;whiteSpace=wrap;align=center;verticalAlign=middle;spacingLeft=0;fontStyle=0;fontSize=16;spacing=5;" parent="1" vertex="1">
          <mxGeometry x="355" y="970" width="90" height="40" as="geometry" />
        </mxCell>
        <mxCell id="e2dqvePIEYTKkvD19rhr-21" style="edgeStyle=orthogonalEdgeStyle;rounded=0;orthogonalLoop=1;jettySize=auto;html=1;exitX=0.75;exitY=0;exitDx=0;exitDy=0;entryX=0.75;entryY=1;entryDx=0;entryDy=0;" parent="1" target="e2dqvePIEYTKkvD19rhr-1" edge="1">
          <mxGeometry relative="1" as="geometry">
            <mxPoint x="552.5000000000002" y="600" as="sourcePoint" />
          </mxGeometry>
        </mxCell>
        <mxCell id="e2dqvePIEYTKkvD19rhr-22" value="&quot;promise&quot; button clicked" style="edgeLabel;html=1;align=center;verticalAlign=middle;resizable=0;points=[];" parent="e2dqvePIEYTKkvD19rhr-21" vertex="1" connectable="0">
          <mxGeometry x="0.3094" y="-9" relative="1" as="geometry">
            <mxPoint as="offset" />
          </mxGeometry>
        </mxCell>
        <mxCell id="e2dqvePIEYTKkvD19rhr-13" value="" style="ellipse;whiteSpace=wrap;html=1;" parent="1" vertex="1">
          <mxGeometry x="310" y="710" width="180" height="180" as="geometry" />
        </mxCell>
        <mxCell id="e2dqvePIEYTKkvD19rhr-14" value="You&#39;ll do:&lt;br&gt;item 2&lt;br&gt;&lt;br&gt;&lt;br&gt;[JUST DO IT gif]&lt;div&gt;&lt;br&gt;&lt;/div&gt;" style="rounded=1;whiteSpace=wrap;html=1;verticalAlign=top;" parent="1" vertex="1">
          <mxGeometry x="230" y="730" width="330" height="190" as="geometry" />
        </mxCell>
        <mxCell id="e2dqvePIEYTKkvD19rhr-15" value="I promise I&#39;ll do it..." style="html=1;shadow=0;dashed=0;shape=mxgraph.bootstrap.rrect;rSize=5;strokeColor=none;strokeWidth=1;fillColor=#33A64C;fontColor=#FFFFFF;whiteSpace=wrap;align=center;verticalAlign=middle;spacingLeft=0;fontStyle=0;fontSize=16;spacing=5;" parent="1" vertex="1">
          <mxGeometry x="350" y="860" width="90" height="40" as="geometry" />
        </mxCell>
        <mxCell id="e2dqvePIEYTKkvD19rhr-16" value="spin" style="ellipse;whiteSpace=wrap;html=1;" parent="1" vertex="1">
          <mxGeometry x="372.5" y="240" width="45" height="50" as="geometry" />
        </mxCell>
        <mxCell id="e2dqvePIEYTKkvD19rhr-23" value="&lt;h1 style=&quot;margin-top: 0px;&quot;&gt;TODOulette&lt;/h1&gt;" style="text;html=1;whiteSpace=wrap;overflow=hidden;rounded=0;" parent="1" vertex="1">
          <mxGeometry x="310" y="65" width="180" height="50" as="geometry" />
        </mxCell>
        <mxCell id="e2dqvePIEYTKkvD19rhr-24" value="&lt;h1 style=&quot;margin-top: 0px;&quot;&gt;TODOulette&lt;/h1&gt;" style="text;html=1;whiteSpace=wrap;overflow=hidden;rounded=0;" parent="1" vertex="1">
          <mxGeometry x="290" y="610" width="180" height="50" as="geometry" />
        </mxCell>
        <mxCell id="e2dqvePIEYTKkvD19rhr-25" value="&lt;h1 style=&quot;margin-top: 0px;&quot;&gt;TODOulette&lt;/h1&gt;" style="text;html=1;whiteSpace=wrap;overflow=hidden;rounded=0;" parent="1" vertex="1">
          <mxGeometry x="1100" y="70" width="180" height="50" as="geometry" />
        </mxCell>
      </root>
    </mxGraphModel>
  </diagram>
</mxfile>
